<?xml version="1.0" standalone="no"?>
<!DOCTYPE svg PUBLIC "-//W3C//DTD SVG 20010904//EN"
 "http://www.w3.org/TR/2001/REC-SVG-20010904/DTD/svg10.dtd">
<svg version="1.0" xmlns="http://www.w3.org/2000/svg"
 width="1500.000000pt" height="258.000000pt" viewBox="0 0 1500.000000 258.000000"
 preserveAspectRatio="xMidYMid meet">

<g transform="translate(0.000000,258.000000) scale(0.100000,-0.100000)"
fill="#000000" stroke="none">
<path d="M1200 2513 c-418 -68 -748 -300 -929 -653 -123 -240 -164 -485 -125
-748 66 -449 372 -821 802 -976 248 -89 558 -92 802 -9 425 145 728 486 820
923 41 192 27 439 -35 625 -59 176 -180 369 -313 497 -242 233 -533 350 -865
347 -73 -1 -143 -4 -157 -6z m924 -395 c8 -13 15 -36 17 -53 5 -64 0 -76 -35
-90 -50 -21 -62 -71 -81 -330 -9 -121 -22 -292 -30 -380 -24 -259 -17 -346 32
-392 43 -41 56 -110 28 -150 -18 -26 -40 -33 -235 -73 -142 -30 -145 -30 -170
-12 -14 10 -31 37 -39 60 -13 36 -13 44 3 81 12 25 16 50 12 68 -4 15 -59 138
-124 272 l-117 244 -7 -49 c-4 -27 -9 -163 -10 -302 -3 -248 -3 -253 18 -270
59 -46 64 -155 9 -180 -43 -20 -333 -75 -359 -68 -56 14 -77 128 -32 170 l25
22 -88 185 c-134 283 -138 291 -237 494 -51 105 -104 203 -116 219 -23 28 -25
28 -54 13 -95 -49 -55 -187 53 -187 36 0 78 -42 87 -85 8 -36 -24 -92 -64
-113 -31 -16 -109 -8 -167 18 -57 25 -128 93 -155 148 -34 71 -32 179 5 250
35 67 96 128 153 154 25 10 111 33 192 49 81 16 155 32 164 35 24 7 64 -38 72
-81 5 -23 2 -45 -8 -64 -20 -39 -16 -52 127 -358 108 -231 112 -240 119 -205
11 56 48 480 48 545 0 51 -3 59 -25 69 -27 12 -55 63 -55 102 0 40 38 72 96
80 27 4 97 18 156 31 60 14 115 22 123 18 40 -15 60 -120 29 -154 -14 -16 -14
-24 5 -91 11 -40 53 -143 93 -228 41 -85 94 -199 118 -252 24 -53 45 -96 46
-95 3 3 42 483 51 622 l6 91 -27 12 c-52 23 -70 120 -29 154 19 16 272 76 325
77 29 1 41 -4 52 -21z"/>
<path d="M5329 2015 c-69 -22 -140 -74 -177 -129 -62 -93 -63 -107 -60 -593 3
-433 3 -439 26 -488 120 -262 509 -266 630 -7 l27 57 3 439 c3 418 2 443 -18
507 -40 134 -157 219 -310 226 -47 2 -92 -3 -121 -12z m190 -212 c51 -38 51
-39 51 -486 0 -375 -2 -422 -17 -447 -41 -70 -156 -82 -216 -21 l-32 31 -3
428 c-2 403 -1 429 17 458 39 63 139 82 200 37z"/>
<path d="M6527 2020 c-173 -44 -275 -227 -247 -447 23 -174 71 -229 281 -314
67 -27 133 -56 146 -65 39 -25 53 -73 53 -183 0 -161 -37 -208 -158 -199 -91
6 -132 54 -132 153 l0 46 -102 -3 -103 -3 2 -75 c4 -136 86 -253 212 -301 118
-45 284 -22 373 51 89 74 132 248 110 441 -22 182 -61 224 -304 318 -124 49
-152 68 -169 118 -17 53 -7 177 18 211 61 84 187 77 236 -13 6 -11 13 -47 16
-80 l6 -60 100 0 100 0 0 85 c0 73 -4 94 -28 142 -54 110 -165 179 -297 184
-41 2 -92 -1 -113 -6z"/>
<path d="M9007 2016 c-98 -27 -184 -113 -212 -211 -13 -45 -15 -121 -13 -511
3 -458 3 -459 27 -511 26 -58 94 -127 145 -148 19 -8 63 -19 98 -25 116 -18
225 17 298 96 65 70 83 117 88 222 l4 92 -101 0 -101 0 0 -42 c0 -61 -16 -111
-44 -137 -30 -28 -103 -39 -145 -21 -60 24 -61 35 -61 494 0 470 1 475 67 502
98 41 183 -33 183 -158 l0 -38 101 0 101 0 -4 88 c-5 103 -27 160 -87 225 -24
25 -64 55 -94 67 -64 28 -181 36 -250 16z"/>
<path d="M9828 2016 c-107 -29 -202 -123 -228 -226 -7 -31 -10 -189 -8 -500
l3 -455 24 -45 c59 -113 176 -182 311 -182 134 -1 243 61 305 173 l30 54 3
468 c3 455 2 469 -18 515 -33 74 -68 119 -121 153 -87 55 -200 72 -301 45z
m181 -213 c60 -45 61 -50 60 -483 0 -279 -4 -405 -12 -430 -36 -104 -210 -107
-253 -4 -12 30 -14 101 -12 449 l3 413 25 27 c52 57 133 68 189 28z"/>
<path d="M2945 2008 c-4 -11 -69 -295 -140 -608 -13 -58 -58 -255 -99 -437
-42 -183 -76 -335 -76 -338 0 -3 46 -5 103 -5 l102 0 30 148 30 147 138 3 c75
1 137 0 137 -3 0 -4 30 -153 56 -273 4 -21 9 -22 108 -22 l104 0 -14 58 c-8
31 -32 136 -53 232 -22 96 -63 274 -90 395 -135 593 -161 706 -161 711 0 2
-38 4 -85 4 -59 0 -87 -4 -90 -12z m180 -865 l6 -33 -101 0 c-99 0 -100 0 -95
23 3 12 23 114 45 227 22 113 43 214 47 225 6 17 43 -152 98 -442z"/>
<path d="M3527 2013 c-4 -3 -7 -318 -7 -700 l0 -693 310 0 310 0 0 100 0 100
-205 0 -205 0 0 600 0 600 -98 0 c-54 0 -102 -3 -105 -7z"/>
<path d="M4257 2013 c-4 -3 -7 -319 -7 -701 l0 -694 213 4 c175 3 219 7 252
21 110 49 166 119 191 238 13 61 15 144 12 479 -3 394 -4 406 -26 462 -41 101
-123 166 -237 187 -63 12 -387 15 -398 4z m374 -200 c32 -12 46 -26 60 -57 17
-38 19 -73 19 -439 0 -440 -1 -450 -62 -487 -26 -15 -50 -20 -110 -20 l-78 0
0 510 0 510 65 0 c37 0 82 -7 106 -17z"/>
<path d="M5937 2013 c-4 -3 -7 -80 -7 -171 0 -141 2 -163 15 -158 8 3 55 34
105 68 l90 63 0 103 0 102 -98 0 c-54 0 -102 -3 -105 -7z"/>
<path d="M10440 1320 l0 -700 100 0 100 0 0 417 c0 240 4 413 9 407 5 -5 51
-136 102 -292 l94 -283 55 3 55 3 95 282 c52 155 98 285 103 289 4 4 7 -180 7
-409 l0 -417 100 0 100 0 0 700 0 700 -99 0 -99 0 -15 -42 c-8 -24 -50 -142
-92 -263 -42 -121 -93 -266 -112 -322 -20 -57 -39 -103 -42 -103 -3 0 -57 145
-120 323 -63 177 -122 341 -130 365 l-15 42 -98 0 -98 0 0 -700z"/>
<path d="M11548 2014 c-5 -4 -8 -319 -8 -701 l0 -693 105 0 105 0 0 268 0 269
103 6 c123 7 182 26 239 77 84 74 118 173 118 350 0 172 -26 259 -102 337 -75
77 -113 87 -348 91 -113 2 -208 0 -212 -4z m407 -208 c46 -30 59 -76 59 -216
0 -194 -29 -232 -178 -234 l-81 -1 -3 239 -2 238 89 -4 c62 -3 96 -9 116 -22z"/>
<path d="M12495 1998 c-3 -13 -32 -142 -65 -288 -33 -146 -72 -314 -86 -375
-14 -60 -56 -245 -93 -410 l-68 -300 100 -3 c55 -1 101 -1 103 1 2 2 15 59 29
128 14 68 27 134 30 147 5 22 7 23 143 20 l137 -3 29 -147 28 -148 104 0 c103
0 104 0 99 23 -3 12 -32 141 -65 287 -33 146 -102 450 -153 675 l-93 410 -87
3 c-83 3 -87 2 -92 -20z m140 -629 c25 -123 45 -232 45 -241 0 -16 -11 -18
-95 -18 -65 0 -95 4 -95 11 0 7 20 115 45 241 25 126 45 232 45 235 0 31 16
-38 55 -228z"/>
<path d="M13070 1320 l0 -700 105 0 105 0 2 412 3 412 119 -320 c65 -175 134
-361 154 -411 l35 -93 98 0 99 0 -2 698 -3 697 -102 3 -103 3 -2 -418 -3 -418
-67 185 c-37 102 -105 289 -152 415 l-84 230 -101 3 -101 3 0 -701z"/>
<path d="M13880 2007 c0 -8 7 -34 16 -58 9 -24 69 -199 135 -388 l119 -344 0
-299 0 -298 105 0 105 0 0 294 0 294 140 402 c77 222 140 404 140 406 0 2 -49
4 -109 4 -95 0 -109 -2 -114 -17 -55 -191 -151 -511 -156 -521 -4 -7 -42 105
-88 260 l-80 273 -107 3 c-86 2 -106 0 -106 -11z"/>
<path d="M7719 1884 c-15 -3 -50 -19 -79 -37 -143 -86 -159 -290 -40 -488 l38
-63 -59 -66 c-33 -36 -74 -94 -92 -130 -27 -55 -32 -77 -35 -155 -3 -73 0
-101 17 -146 77 -205 323 -258 511 -109 l37 30 31 -50 31 -50 101 0 c55 0 100
3 100 7 0 3 -31 55 -70 114 -38 60 -70 111 -70 115 0 3 32 46 70 95 39 48 70
92 70 97 0 10 -105 82 -119 82 -5 0 -31 -29 -57 -65 -26 -36 -51 -65 -55 -65
-7 0 -179 265 -179 276 0 4 24 32 53 64 71 76 114 143 132 204 55 183 -52 335
-240 342 -38 1 -82 0 -96 -2z m130 -168 c52 -27 65 -93 32 -169 -19 -45 -85
-127 -102 -127 -13 0 -56 90 -70 144 -28 112 51 198 140 152z m-9 -726 l92
-145 -38 -32 c-90 -79 -194 -60 -244 43 -41 83 -17 184 63 272 11 12 24 19 28
15 4 -5 48 -73 99 -153z"/>
</g>
</svg>
